<svg width="40" height="40" viewBox="0 0 40 40" fill="none" xmlns="http://www.w3.org/2000/svg">
<g clip-path="url(#clip0_111_341)">
<path d="M1.2624 0C0.630818 0 0.0694147 0.514706 -0.000760751 1.17647C-0.0709362 1.83824 0.420292 2.42647 1.05187 2.57353L4.77117 3.60294L13.3326 25.4412L10.315 27.9412C10.315 27.9412 10.315 27.9412 10.2449 28.0147C8.84135 29.1176 8.13959 30.8824 8.56065 32.5C8.56065 32.5 8.56065 32.5 8.56065 32.5735C9.05187 33.8235 9.89398 34.5588 10.8764 35C9.75363 35.2206 8.91152 36.3235 8.91152 37.5C8.91152 38.8971 10.0343 40.0735 11.3677 40.0735C12.701 40.0735 13.8238 38.8971 13.8238 37.5C13.8238 36.5441 13.3326 35.6618 12.5606 35.2206L33.4028 35.2941C32.701 35.7353 32.2799 36.5441 32.2799 37.5C32.2799 38.8971 33.4028 40.0735 34.7361 40.0735C36.0694 40.0735 37.1922 38.8971 37.1922 37.5C37.1922 36.6176 36.701 35.8088 36.0694 35.2941H37.894C38.5256 35.2941 39.087 34.7059 39.1571 34.0441C39.1571 33.3824 38.5957 32.7941 37.9642 32.7941L12.701 32.7206H12.6308C11.9992 32.7941 11.5782 32.6471 11.3677 32.5C11.1571 32.3529 11.0168 32.1324 11.0168 31.9118C10.8764 31.4706 11.087 30.6618 11.8589 30.0735L16.0694 26.6176L37.2624 24.8529C37.8238 24.7794 38.315 24.3382 38.3852 23.75L39.9992 9.33823C40.0694 8.97059 39.9291 8.60294 39.7185 8.38235C39.508 8.16176 39.1571 7.94118 38.8063 7.94118L9.05187 7.13235L6.73608 1.98529C6.59573 1.54412 6.24486 1.25 5.8238 1.17647L1.40275 0C1.33257 0 1.33257 0 1.2624 0ZM9.96415 9.11765L13.894 9.19118V13.6765H11.6484L9.96415 9.11765ZM14.8063 9.26471L18.9466 9.33823V13.6765H14.8063V9.26471ZM23.8589 9.48529V13.75H19.7185V9.41177L23.8589 9.48529ZM24.701 9.48529L28.8414 9.55882V13.6765H24.701V9.48529ZM33.8238 9.70588V13.6765H29.6835V9.55882L33.8238 9.70588ZM34.6659 9.77941L38.1045 9.85294L37.6835 13.75H34.6659V9.77941ZM37.6133 14.6324L37.1221 18.6765H34.6659V14.6324H37.6133ZM33.8238 18.6765H29.6835V14.6324H33.8238V18.6765ZM28.8414 18.6765H24.701V14.6324H28.8414V18.6765ZM23.8589 18.6765H19.7185V14.6324H23.8589V18.6765ZM18.8764 18.6765H14.7361V14.6324H18.8764V18.6765ZM13.894 18.6765H13.4729L11.9992 14.6324H13.894V18.6765ZM37.0519 19.5588L36.7712 22.2794L34.7361 22.4265V19.5588H37.0519ZM33.8238 19.5588V22.5L29.6835 22.8676V19.5588H33.8238ZM28.8414 22.9412L24.701 23.3088V19.5588H28.8414V22.9412ZM23.8589 19.5588V23.3824L19.7185 23.75V19.6324L23.8589 19.5588ZM18.8764 19.5588V23.75L15.8589 23.9706C15.7185 23.9706 15.6484 24.0441 15.508 24.0441L14.7361 21.9118V19.4853L18.8764 19.5588ZM13.894 19.7059L13.8238 19.5588H13.894V19.7059ZM36.2799 37.4265C36.2799 38.2353 35.6484 38.9706 34.8063 38.9706C33.9642 38.9706 33.3326 38.3088 33.3326 37.4265C33.3326 36.6176 33.9642 35.8824 34.8063 35.8824C35.5782 35.8824 36.2799 36.6176 36.2799 37.4265ZM12.9115 37.4265C12.9115 38.2353 12.2799 38.9706 11.4378 38.9706C10.5957 38.9706 9.96415 38.3088 9.96415 37.4265C9.96415 36.6176 10.5957 35.8824 11.4378 35.8824C12.2799 35.8824 12.9115 36.6176 12.9115 37.4265ZM34.0343 37.4265C34.0343 37.8676 34.3852 38.2353 34.8063 38.2353C35.2273 38.2353 35.5782 37.8676 35.5782 37.4265C35.5782 36.9853 35.2273 36.6176 34.8063 36.6176C34.3852 36.6176 34.0343 36.9853 34.0343 37.4265ZM10.6659 37.4265C10.6659 37.8676 11.0168 38.2353 11.4378 38.2353C11.8589 38.2353 12.2098 37.8676 12.2098 37.4265C12.2098 36.9853 11.8589 36.6176 11.4378 36.6176C11.0168 36.6176 10.6659 36.9853 10.6659 37.4265Z" fill="#CD5351"/>
</g>
<defs>
<clipPath id="clip0_111_341">
<rect width="40" height="40" fill="white"/>
</clipPath>
</defs>
</svg>
