<svg width="24" height="26" viewBox="0 0 24 26" fill="none" xmlns="http://www.w3.org/2000/svg">
<circle cx="17.1639" cy="7" r="6" fill="black"/>
<circle cx="6.16394" cy="18" r="6" fill="black"/>
<path d="M0.404177 13.0166C0.182696 13.0166 0.00551166 12.8388 0.00551166 12.6165C-0.0387845 11.1051 0.182696 9.63805 0.714251 8.21549C1.24581 6.88184 1.99884 5.6371 2.97336 4.61464C3.94787 3.54772 5.09957 2.70307 6.42846 2.12516C7.75735 1.50279 9.21912 1.14715 10.7252 1.10269C10.9467 1.10269 11.1682 1.28051 11.1682 1.50279C11.1682 1.72506 10.991 1.94734 10.7695 1.94734C8.02312 2.03625 5.49824 3.19208 3.6378 5.19255C1.77736 7.19303 0.758547 9.81587 0.847139 12.5721C0.847139 12.7944 0.669954 12.9722 0.404177 13.0166C0.448473 13.0166 0.448473 13.0166 0.404177 13.0166Z" fill="black"/>
<path d="M9.04196 3.10318L8.95337 0.169154C8.95337 0.0357889 9.08626 -0.053121 9.17485 0.035789L11.744 1.41389C11.8769 1.45835 11.8769 1.63617 11.744 1.68062L9.26344 3.23655C9.17485 3.32546 9.04196 3.23655 9.04196 3.10318ZM9.83929 1.63617C9.83929 1.76953 9.97218 1.85844 10.1051 1.76953C10.1937 1.68062 10.1937 1.54726 10.1051 1.5028C9.97218 1.41389 9.83929 1.5028 9.83929 1.63617Z" fill="black"/>
<path d="M12.4971 24.7528C12.2756 24.7528 12.0984 24.5749 12.0984 24.3527C12.0984 24.1304 12.2756 23.9081 12.4971 23.9081C18.1227 23.7303 22.5523 18.9292 22.3751 13.2834C22.3751 13.0611 22.5523 12.8388 22.7738 12.8388C22.9953 12.8388 23.1724 13.0167 23.1724 13.2389C23.2167 14.7504 22.9953 16.2174 22.4637 17.5955C21.9321 18.9292 21.1791 20.1739 20.2046 21.1964C19.2301 22.2633 18.0784 23.1079 16.7495 23.6859C15.4206 24.3527 14.0031 24.7083 12.4971 24.7528Z" fill="black"/>
<path d="M14.0475 25.7752L11.4783 24.3971C11.3454 24.3527 11.3454 24.1749 11.4783 24.1304L13.9589 22.5745C14.0475 22.4856 14.2247 22.5745 14.2247 22.7078L14.3133 25.6419C14.269 25.7752 14.1361 25.8641 14.0475 25.7752ZM13.1616 24.3527C13.2945 24.3971 13.4274 24.3082 13.3831 24.2193C13.3831 24.0859 13.2502 23.997 13.1173 24.0859C13.0287 24.1304 13.0287 24.3082 13.1616 24.3527Z" fill="black"/>
<path d="M2.61914 16.4177H6.6058V17.0845H2.61914V16.4177ZM2.61914 17.8402H6.6058V18.5071H2.61914V17.8402ZM8.55483 19.3962C8.24476 20.552 7.44743 21.3077 6.07424 21.3077C4.2581 21.3077 3.32788 19.8407 3.32788 17.618C3.32788 15.2174 4.47958 13.8393 6.16284 13.8393C7.7132 13.8393 8.42194 14.8173 8.55483 15.7509H7.53602C7.31454 15.084 6.91587 14.6839 6.07424 14.6839C4.87825 14.6839 4.34669 15.7509 4.34669 17.5735C4.34669 19.3517 4.92254 20.4186 6.07424 20.4186C6.78298 20.4186 7.22594 20.1519 7.53602 19.3962H8.55483Z" fill="white"/>
<path d="M15.2877 8.74897C15.4206 8.74897 15.5535 8.83788 15.5978 8.97125C15.8636 9.63807 16.4837 9.94926 17.3254 9.94926C18.2556 9.94926 18.8314 9.54916 18.8314 8.83788C18.8314 8.25997 18.5657 7.81542 17.1039 7.50423C15.2877 7.10414 14.7119 6.52622 14.7119 5.4593C14.7119 4.48129 15.5092 3.54774 17.1482 3.54774C18.6542 3.54774 19.363 4.21456 19.6288 4.92584C19.7174 5.14812 19.5402 5.37039 19.3187 5.37039H18.9643C18.8314 5.37039 18.6985 5.28148 18.6542 5.14812C18.4771 4.70357 18.0341 4.34793 17.1039 4.34793C16.0408 4.34793 15.775 4.83693 15.775 5.32594C15.775 5.90385 16.1294 6.21504 17.4582 6.48177C19.4959 6.92632 19.9388 7.72651 19.9388 8.61561C19.9388 9.81589 19.0086 10.6605 17.2811 10.6605C15.9079 10.6605 14.9777 10.0826 14.6676 9.10461C14.579 8.88234 14.7562 8.66006 14.9777 8.66006H15.2877V8.74897ZM16.9267 11.3718V3.1921C16.9267 3.01428 17.0596 2.83646 17.2811 2.83646C17.4582 2.83646 17.6354 2.96983 17.6354 3.1921V11.3718C17.6354 11.5496 17.5025 11.7275 17.2811 11.7275C17.1039 11.7275 16.9267 11.5941 16.9267 11.3718Z" fill="white"/>
</svg>
