<svg width="121" height="107" viewBox="0 0 121 107" fill="none" xmlns="http://www.w3.org/2000/svg">
<g clip-path="url(#clip0_314_19)">
<path d="M34.9344 106.177C31.8856 106.177 28.9638 104.531 27.4394 101.872L1.90551 57.8053C0.381105 55.1462 0.381105 51.8538 1.90551 49.1947L27.5029 5.06509C29.0273 2.40592 31.8856 0.759766 34.9979 0.759766H86.0656C89.1144 0.759766 92.0362 2.40592 93.5606 5.06509L119.094 49.1314C120.619 51.7905 120.619 55.0828 119.094 57.742L93.5606 101.808C92.0362 104.467 89.178 106.114 86.0656 106.114H34.9344V106.177Z" fill="white"/>
<path d="M86.0666 1.51953C88.8613 1.51953 91.4655 3.03905 92.8629 5.44497L118.397 49.5112C119.794 51.9172 119.794 54.9562 118.397 57.3621L92.8629 101.428C91.4655 103.834 88.8613 105.354 86.0666 105.354H34.9353C32.1406 105.354 29.5364 103.834 28.139 101.428L2.60516 57.4254C1.20778 55.0195 1.20778 51.9805 2.60516 49.5746L28.139 5.44497C29.5364 3.03905 32.1406 1.51953 34.9353 1.51953H86.0666ZM86.0666 0H34.9353C31.5689 0 28.4566 1.77278 26.8052 4.68521L1.2713 48.8148C-0.380146 51.7272 -0.380146 55.2728 1.2713 58.1852L26.8052 102.251C28.4566 105.164 31.5689 106.937 34.9353 106.937H86.003C89.3695 106.937 92.4818 105.164 94.1332 102.251L119.667 58.1852C121.319 55.2728 121.319 51.7272 119.667 48.8148L94.1968 4.68521C92.5453 1.77278 89.433 0 86.0666 0Z" fill="#CD524E"/>
<path d="M58.1183 17.6012C59.8968 17.6012 61.6753 18.0444 63.1997 18.9941L89.0511 33.8728C91.4013 35.2657 93.1162 37.4184 93.8149 40.0776C94.5136 42.7367 94.1325 45.4592 92.7986 47.8018L71.7745 84.1438C70.8853 85.7267 69.5514 87.0563 67.9635 87.9426C66.4391 88.829 64.6606 89.2722 62.8821 89.2722C61.1036 89.2722 59.3251 88.829 57.8007 87.8793L31.9493 73.0006C29.5992 71.6077 27.8842 69.4551 27.1855 66.7959C26.4868 64.1367 26.8679 61.4142 28.2018 59.0716L49.2259 22.7296C50.1152 21.1468 51.449 19.8172 53.037 18.9308C54.6249 18.0444 56.4034 17.6012 58.1183 17.6012ZM58.1183 13.6758C53.2275 13.6758 48.4002 16.2083 45.796 20.7669L24.7719 57.0456C20.8338 63.8202 23.1839 72.4941 29.9803 76.4196L55.8317 91.2983C58.0548 92.5645 60.532 93.1977 62.9456 93.1977C67.8364 93.1977 72.6637 90.6651 75.2679 86.1066L96.2921 49.7645C100.23 42.99 97.88 34.316 91.0837 30.3906L65.2322 15.5119C63.0091 14.2456 60.532 13.6758 58.1183 13.6758Z" fill="#E24648"/>
<path d="M88.3526 43.623C88.035 41.2171 87.0187 39.0645 85.1767 37.4183C84.224 36.5952 82.8266 35.6455 81.6833 35.0757C76.983 32.4165 71.9652 29.6307 67.2649 26.9716C66.8838 26.7816 66.5662 26.4651 66.3122 26.0852C65.2959 24.8189 64.0891 24.629 63.2633 24.7556C61.6754 24.9455 60.5956 25.9585 60.151 27.4781C60.024 27.858 59.8969 28.2378 59.7064 28.5544C57.4833 32.5432 55.2602 36.4686 53.0371 40.4574L50.4329 45.0793L56.1494 48.3716L69.8691 56.0325C73.172 57.8686 74.2518 61.9207 72.4098 65.213C70.5678 68.442 66.6297 69.5816 63.2633 67.7455L48.845 59.5781L46.1772 64.2633L60.5956 72.3674C66.1851 75.5331 73.9342 73.7603 76.856 69.8982C78.952 67.1757 79.6507 64.0733 79.3967 60.6544C79.2061 58.6284 79.7143 57.8686 81.5562 56.9189C82.6996 56.2858 83.9699 55.6526 84.9227 54.7662C88.162 51.7272 88.9242 47.8651 88.3526 43.623ZM55.5143 44.8893C55.0696 45.7124 53.9898 46.029 53.1641 45.5224C52.3384 45.0793 52.0208 44.0029 52.529 43.1798C52.9736 42.3568 54.0534 42.0402 54.8791 42.5467C55.6413 42.9899 55.9589 44.0662 55.5143 44.8893ZM61.7389 26.8449C62.1835 26.0219 63.2633 25.7053 64.0891 26.2118C64.9148 26.655 65.2324 27.7313 64.7242 28.5544C64.2796 29.3775 63.1998 29.694 62.3741 29.1875C61.5484 28.7443 61.2308 27.668 61.7389 26.8449ZM81.6198 48.8148C79.7778 52.0438 75.7762 53.1834 72.4733 51.3473L58.0549 43.2432L56.7846 42.5467L62.6917 32.1L63.3904 30.8337L64.6607 31.5301C64.6607 31.5301 73.8072 36.6585 79.0791 39.6343C82.382 41.4704 83.4618 45.5858 81.6198 48.8148Z" fill="#E24648"/>
<path d="M41.6676 65.9094C36.2051 62.2372 38.9999 56.9189 38.9999 56.9189C40.7784 53.8165 44.6529 52.1704 48.2734 54.2597L62.8188 62.4272C62.8188 62.4905 63.4539 61.2875 63.4539 61.2875C63.7715 60.6544 64.4702 59.5147 64.4702 59.5147L65.1054 58.3751L50.4329 50.1443C48.4004 49.0047 45.4151 45.5857 48.0828 40.8372C48.0828 40.8372 52.529 32.9863 52.7196 32.6065C47.6382 32.2899 40.9054 39.0011 42.6203 47.6751C42.7474 48.2449 42.4298 48.7514 41.9852 49.0047C41.1595 49.3846 40.3973 49.8278 39.6986 50.1443C32.0765 54.1331 31.6954 63.1236 36.7133 67.9355C37.7931 68.9485 39.381 69.8982 39.381 69.8982L53.9264 78.0656L56.213 74.0136" fill="#E24648"/>
<path d="M62.882 40.3942L64.724 37.1652C64.851 36.9753 65.1051 36.8487 65.3592 36.9753L74.3151 41.9771L72.0285 45.9658L63.009 40.9007C62.8185 40.9007 62.755 40.5842 62.882 40.3942Z" fill="#E24648"/>
<path d="M68.408 58.5651C66.566 57.5521 64.2794 58.1852 63.2632 60.0213C62.2469 61.8574 62.8821 64.1367 64.724 65.1497C66.566 66.1627 68.8527 65.5296 69.8689 63.6935C70.8852 61.8574 70.1865 59.5781 68.408 58.5651ZM68.0269 62.6805C67.5823 63.5035 66.5025 63.8201 65.6768 63.3136C64.8511 62.8704 64.5335 61.7941 65.0416 60.971C65.4863 60.1479 66.566 59.8313 67.3918 60.3379C68.2175 60.8444 68.5351 61.8574 68.0269 62.6805Z" fill="#E24648"/>
<path d="M59.5159 74.267C57.6739 73.254 55.3873 73.8871 54.3711 75.7232C53.3548 77.5593 53.99 79.8386 55.832 80.8516C57.674 81.8646 59.9606 81.2315 60.9768 79.3954C61.9931 77.5593 61.3579 75.28 59.5159 74.267ZM59.1984 78.3824C58.7537 79.2054 57.674 79.522 56.8482 79.0155C56.0225 78.509 55.7049 77.496 56.2131 76.6729C56.6577 75.8498 57.7375 75.5332 58.5632 76.0398C59.3254 76.5463 59.643 77.5593 59.1984 78.3824Z" fill="#E24648"/>
<path d="M77.618 42.2301C75.776 41.2171 73.4894 41.8502 72.4731 43.6863C71.4568 45.5224 72.092 47.8017 73.934 48.8147C75.776 49.8277 78.0626 49.1946 79.0789 47.3585C80.0952 45.5224 79.46 43.2431 77.618 42.2301ZM77.3004 46.3455C76.8558 47.1686 75.776 47.4851 74.9503 46.9786C74.1246 46.5354 73.807 45.4591 74.3151 44.636C74.7597 43.813 75.8395 43.4964 76.6652 44.0029C77.4274 44.4461 77.745 45.5224 77.3004 46.3455Z" fill="#E24648"/>
<path d="M55.8319 40.7741C53.9899 39.761 51.7033 40.3942 50.687 42.2303C49.6707 44.0664 50.3059 46.3457 52.1479 47.3587C53.9899 48.3717 56.2765 47.7386 57.2928 45.9025C58.309 44.0664 57.6739 41.7871 55.8319 40.7741ZM55.5143 44.8894C55.0697 45.7125 53.9899 46.0291 53.1641 45.5226C52.3384 45.0794 52.0208 44.003 52.529 43.18C52.9736 42.3569 54.0534 42.0403 54.8791 42.5468C55.6413 42.99 55.9589 44.0664 55.5143 44.8894Z" fill="#E24648"/>
<path d="M65.0418 24.439C63.2633 23.426 60.9767 24.0591 59.8969 25.8319C58.8807 27.668 59.5158 29.9473 61.3578 30.9603C63.1998 31.9733 65.4864 31.3402 66.5027 29.5041C67.519 27.7313 66.8838 25.452 65.0418 24.439ZM64.7242 28.5544C64.2796 29.3775 63.1998 29.6941 62.3741 29.1875C61.5484 28.7444 61.2308 27.668 61.7389 26.8449C62.1836 26.0219 63.2633 25.7053 64.0891 26.2118C64.8513 26.655 65.1689 27.7313 64.7242 28.5544Z" fill="#E24648"/>
<path d="M46.7489 56.7923C44.7798 55.6527 42.2392 56.3491 41.0958 58.3752C39.9525 60.3379 40.6512 62.8704 42.6838 64.0101C44.6528 65.1497 47.1935 64.4533 48.3368 62.4273C49.4801 60.4645 48.7814 57.932 46.7489 56.7923ZM46.2407 61.2243C45.7961 62.0474 44.7163 62.3639 43.8906 61.8574C43.0649 61.3509 42.7473 60.3379 43.2554 59.5148C43.7 58.6917 44.7798 58.3752 45.6056 58.8817C46.4313 59.3882 46.6854 60.4012 46.2407 61.2243Z" fill="#E24648"/>
</g>
<defs>
<clipPath id="clip0_314_19">
<rect width="121" height="107" fill="white"/>
</clipPath>
</defs>
</svg>
