<svg width="350" height="107" viewBox="0 0 350 107" fill="none" xmlns="http://www.w3.org/2000/svg">
<path d="M147.007 61.1583C146.784 60.9348 146.709 60.7114 146.709 60.4134V33.7467C146.709 33.4488 146.784 33.2253 147.007 33.0019C147.157 32.7784 147.455 32.7039 147.753 32.7039H151.406C152.002 32.7039 152.449 32.9274 152.748 33.4488L161.395 48.1229L170.043 33.4488C170.341 32.9274 170.788 32.7039 171.384 32.7039H174.963C175.261 32.7039 175.559 32.7784 175.783 33.0019C176.006 33.2253 176.081 33.4488 176.081 33.7467V60.4879C176.081 60.7858 176.006 61.0093 175.783 61.2328C175.559 61.3818 175.335 61.5307 174.963 61.5307H171.086C170.788 61.5307 170.564 61.4562 170.341 61.2328C170.117 61.0093 170.043 60.7858 170.043 60.5624V42.7598L163.855 53.635C163.557 54.2309 163.035 54.5289 162.364 54.5289H160.501C159.904 54.5289 159.382 54.2309 159.01 53.635L152.673 42.7598V60.4134C152.673 60.7114 152.599 60.9348 152.375 61.0838C152.151 61.3073 151.928 61.3818 151.555 61.3818H147.678C147.455 61.4562 147.231 61.3073 147.007 61.1583Z" fill="#E24648"/>
<path d="M182.194 61.1583C181.97 60.9348 181.896 60.7114 181.896 60.4879V33.7467C181.896 33.4488 181.97 33.2253 182.194 33.0019C182.343 32.7784 182.567 32.7039 182.939 32.7039H195.911C199.414 32.7039 202.023 33.3743 203.738 34.7896C205.453 36.2048 206.347 38.1415 206.347 40.5251C206.347 41.9404 205.974 43.1322 205.229 44.175C204.483 45.1434 203.589 45.8883 202.545 46.3352C203.813 46.8566 204.856 47.676 205.751 48.8678C206.645 50.0596 207.018 51.4004 207.018 52.8901C207.018 55.4227 206.049 57.5084 204.185 59.0726C202.322 60.6369 199.638 61.3818 196.283 61.3818H182.865C182.641 61.4562 182.343 61.3073 182.194 61.1583ZM195.165 44.473C196.656 44.473 197.849 44.1006 198.669 43.4302C199.489 42.7598 199.936 41.8659 199.936 40.6741C199.936 39.5568 199.563 38.6629 198.743 37.9926C197.923 37.3966 196.731 37.0242 195.165 37.0242H188.232V44.3985H195.165V44.473ZM195.612 57.0615C197.178 57.0615 198.371 56.689 199.265 55.8696C200.16 55.1248 200.532 54.0819 200.532 52.8901C200.532 51.6983 200.085 50.73 199.191 49.9106C198.296 49.1657 197.103 48.7188 195.612 48.7188H188.232V56.987H195.612V57.0615Z" fill="#E24648"/>
<path d="M212.013 61.1583C211.864 61.0093 211.715 60.7858 211.715 60.4879V33.6723C211.715 33.3743 211.789 33.1508 212.013 33.0019C212.162 32.8529 212.46 32.7039 212.758 32.7039H213.578C213.876 32.7039 214.175 32.7784 214.324 32.9274C214.473 33.0764 214.622 33.2998 214.622 33.5978V45.5903H231.917V33.6723C231.917 33.3743 231.991 33.1508 232.215 33.0019C232.364 32.8529 232.662 32.7039 232.961 32.7039H233.781C234.079 32.7039 234.377 32.7784 234.526 32.9274C234.675 33.0764 234.824 33.2998 234.824 33.5978V60.4879C234.824 60.7858 234.75 61.0093 234.526 61.1583C234.302 61.3073 234.079 61.3818 233.781 61.3818H232.961C232.662 61.3818 232.439 61.3073 232.215 61.1583C232.066 61.0093 231.917 60.7858 231.917 60.4879V48.0484H214.622V60.4879C214.622 60.7858 214.547 61.0093 214.324 61.1583C214.1 61.3073 213.876 61.3818 213.578 61.3818H212.758C212.46 61.4562 212.236 61.3073 212.013 61.1583Z" fill="black"/>
<path d="M240.639 50.5065C240.639 49.6872 240.564 48.5698 240.564 47.0801C240.564 45.5903 240.564 44.473 240.639 43.6536C240.788 39.9292 241.832 37.0987 243.994 35.2365C246.081 33.2998 248.914 32.3315 252.492 32.3315C256.07 32.3315 258.903 33.2998 260.99 35.2365C263.078 37.1732 264.196 40.0037 264.345 43.6536C264.42 45.2924 264.42 46.4097 264.42 47.0801C264.42 47.7505 264.42 48.8678 264.345 50.5065C264.121 58.0298 260.17 61.8287 252.492 61.8287C244.814 61.8287 240.863 58.0298 240.639 50.5065ZM258.978 57.1359C260.543 55.6462 261.438 53.3371 261.587 50.2831C261.661 48.6443 261.661 47.527 261.661 47.0056C261.661 46.4842 261.661 45.4413 261.587 43.7281C261.438 40.6741 260.618 38.365 258.978 36.8752C257.338 35.3855 255.25 34.6406 252.567 34.6406C249.883 34.6406 247.796 35.3855 246.155 36.8752C244.515 38.365 243.695 40.6741 243.546 43.7281C243.546 44.5475 243.472 45.6648 243.472 47.0056C243.472 48.3464 243.472 49.3892 243.546 50.2831C243.695 53.3371 244.515 55.6462 246.155 57.1359C247.721 58.6257 249.883 59.3706 252.567 59.3706C255.176 59.3706 257.338 58.6257 258.978 57.1359Z" fill="black"/>
<path d="M272.993 58.9981C270.98 57.0615 270.011 54.2309 270.011 50.3575V33.6723C270.011 33.3743 270.085 33.1508 270.309 33.0019C270.458 32.8529 270.756 32.7039 271.054 32.7039H271.874C272.173 32.7039 272.471 32.7784 272.62 32.9274C272.769 33.0764 272.918 33.2998 272.918 33.5978V50.3575C272.918 53.3371 273.663 55.6462 275.229 57.0615C276.72 58.5512 278.882 59.2961 281.715 59.2961C284.473 59.2961 286.635 58.5512 288.126 57.0615C289.617 55.5717 290.437 53.3371 290.437 50.3575V33.6723C290.437 33.3743 290.511 33.1508 290.735 33.0019C290.958 32.8529 291.182 32.7784 291.48 32.7784H292.3C292.599 32.7784 292.822 32.8529 293.046 33.0764C293.195 33.2253 293.344 33.4488 293.344 33.7467V50.432C293.344 54.3799 292.375 57.2104 290.362 59.1471C288.424 61.0093 285.517 61.9777 281.789 61.9777C277.838 61.8287 274.931 60.8603 272.993 58.9981Z" fill="black"/>
<path d="M303.333 60.7858C301.619 60.1155 300.277 59.1471 299.382 58.0298C298.488 56.9125 297.966 55.7207 297.891 54.4544C297.891 54.2309 297.966 54.0074 298.19 53.8585C298.339 53.7095 298.562 53.635 298.86 53.635H299.755C300.277 53.635 300.65 53.933 300.724 54.4544C300.948 55.7952 301.768 56.9125 303.184 57.8808C304.601 58.8492 306.688 59.3706 309.372 59.3706C312.204 59.3706 314.366 58.9236 315.708 57.9553C317.125 56.987 317.796 55.7207 317.796 54.0074C317.796 52.9646 317.423 52.1453 316.752 51.4749C316.081 50.8045 315.112 50.2086 313.844 49.6871C312.577 49.1657 310.639 48.5698 308.03 47.7505C305.719 47.0801 303.93 46.4097 302.588 45.7393C301.321 45.0689 300.351 44.2495 299.68 43.2812C299.084 42.3128 298.711 41.121 298.711 39.6313C298.711 38.216 299.159 36.9497 299.979 35.8324C300.799 34.7151 301.991 33.8212 303.557 33.1508C305.122 32.4804 306.986 32.1825 309.148 32.1825C311.384 32.1825 313.248 32.5549 314.814 33.2998C316.379 34.0447 317.572 34.9385 318.392 36.0559C319.212 37.1732 319.659 38.2905 319.659 39.4078C319.659 39.6313 319.585 39.8547 319.436 40.0037C319.286 40.1527 319.063 40.2272 318.765 40.2272H317.87C317.646 40.2272 317.423 40.1527 317.274 40.0782C317.05 39.9292 316.975 39.7803 316.901 39.4078C316.752 38.067 315.932 36.8752 314.515 36.0559C313.099 35.162 311.31 34.7151 309.148 34.7151C306.837 34.7151 305.048 35.162 303.632 35.9814C302.29 36.8007 301.619 38.067 301.619 39.7058C301.619 40.7486 301.917 41.6425 302.513 42.3873C303.11 43.0577 304.079 43.6536 305.272 44.175C306.464 44.6965 308.328 45.2924 310.714 46.0372C313.174 46.7821 315.112 47.4525 316.454 48.1229C317.796 48.7933 318.839 49.5382 319.585 50.5065C320.256 51.4004 320.628 52.6667 320.628 54.0819C320.628 56.54 319.659 58.4767 317.646 59.8175C315.634 61.2328 312.875 61.9032 309.372 61.9032C307.061 61.8287 305.048 61.4562 303.333 60.7858Z" fill="black"/>
<path d="M326.07 61.1583C325.921 61.0093 325.772 60.7858 325.772 60.4879V33.6723C325.772 33.3743 325.847 33.1508 326.07 33.0019C326.219 32.8529 326.518 32.7039 326.816 32.7039H344.26C344.558 32.7039 344.856 32.7784 345.005 32.9274C345.154 33.0764 345.304 33.2998 345.304 33.5978V34.1937C345.304 34.4916 345.229 34.7151 345.005 34.8641C344.782 35.013 344.558 35.0875 344.26 35.0875H328.605V45.5158H343.291C343.589 45.5158 343.887 45.5903 344.036 45.7393C344.185 45.8883 344.334 46.1117 344.334 46.4097V47.0056C344.334 47.3035 344.26 47.527 344.036 47.676C343.813 47.825 343.589 47.8994 343.291 47.8994H328.605V58.7747H344.633C344.931 58.7747 345.229 58.8492 345.378 58.9981C345.527 59.1471 345.676 59.3706 345.676 59.6685V60.2644C345.676 60.5624 345.602 60.7858 345.378 60.9348C345.154 61.0838 344.931 61.1583 344.633 61.1583H326.741C326.443 61.4562 326.219 61.3073 326.07 61.1583Z" fill="black"/>
<g clip-path="url(#clip0_111_302)">
<path d="M34.9344 106.177C31.8856 106.177 28.9638 104.531 27.4394 101.872L1.90551 57.8053C0.381096 55.1462 0.381096 51.8538 1.90551 49.1947L27.5029 5.06509C29.0273 2.40592 31.8856 0.759766 34.9979 0.759766H86.0656C89.1144 0.759766 92.0362 2.40592 93.5606 5.06509L119.094 49.1314C120.619 51.7905 120.619 55.0828 119.094 57.742L93.5606 101.808C92.0362 104.467 89.1779 106.114 86.0656 106.114H34.9344V106.177Z" fill="white"/>
<path d="M86.0664 1.51953C88.8611 1.51953 91.4653 3.03905 92.8627 5.44497L118.397 49.5112C119.794 51.9172 119.794 54.9562 118.397 57.3621L92.8627 101.428C91.4653 103.834 88.8611 105.354 86.0664 105.354H34.9352C32.1404 105.354 29.5362 103.834 28.1388 101.428L2.60498 57.4254C1.20761 55.0195 1.20761 51.9805 2.60498 49.5746L28.1388 5.44497C29.5362 3.03905 32.1404 1.51953 34.9352 1.51953H86.0664ZM86.0664 0H34.9352C31.5688 0 28.4564 1.77278 26.805 4.68521L1.27113 48.8148C-0.380317 51.7272 -0.380317 55.2728 1.27113 58.1852L26.805 102.251C28.4564 105.164 31.5688 106.937 34.9352 106.937H86.0029C89.3693 106.937 92.4816 105.164 94.1331 102.251L119.667 58.1852C121.318 55.2728 121.318 51.7272 119.667 48.8148L94.1966 4.68521C92.5451 1.77278 89.4328 0 86.0664 0Z" fill="#CD524E"/>
<path d="M58.1181 17.6012C59.8966 17.6012 61.6751 18.0444 63.1995 18.9941L89.0509 33.8728C91.401 35.2657 93.116 37.4183 93.8147 40.0775C94.5134 42.7367 94.1323 45.4592 92.7984 47.8018L71.7743 84.1438C70.885 85.7266 69.5512 87.0562 67.9632 87.9426C66.4388 88.829 64.6604 89.2722 62.8819 89.2722C61.1034 89.2722 59.3249 88.829 57.8005 87.8793L31.9491 73.0006C29.5989 71.6077 27.884 69.455 27.1853 66.7959C26.4866 64.1367 26.8677 61.4142 28.2016 59.0716L49.2257 22.7296C50.115 21.1467 51.4488 19.8172 53.0367 18.9308C54.6247 18.0444 56.4031 17.6012 58.1181 17.6012ZM58.1181 13.6757C53.2273 13.6757 48.4 16.2083 45.7958 20.7669L24.7717 57.0456C20.8336 63.8201 23.1837 72.4941 29.9801 76.4195L55.8315 91.2982C58.0546 92.5645 60.5318 93.1976 62.9454 93.1976C67.8362 93.1976 72.6635 90.6651 75.2677 86.1065L96.2919 49.7645C100.23 42.9899 97.8798 34.316 91.0835 30.3905L65.232 15.5118C63.0089 14.2456 60.5318 13.6757 58.1181 13.6757Z" fill="#E24648"/>
<path d="M88.3522 43.6231C88.0347 41.2172 87.0184 39.0645 85.1764 37.4183C84.2236 36.5953 82.8263 35.6456 81.683 35.0757C76.9827 32.4166 71.9648 29.6308 67.2646 26.9716C66.8835 26.7817 66.5659 26.4651 66.3118 26.0852C65.2956 24.8189 64.0887 24.629 63.263 24.7556C61.6751 24.9456 60.5953 25.9586 60.1507 27.4781C60.0236 27.858 59.8966 28.2379 59.7061 28.5544C57.483 32.5432 55.2599 36.4686 53.0368 40.4574L50.4326 45.0793L56.1491 48.3716L69.8688 56.0325C73.1717 57.8686 74.2515 61.9207 72.4095 65.213C70.5675 68.442 66.6294 69.5817 63.263 67.7456L48.8446 59.5781L46.1769 64.2633L60.5953 72.3675C66.1848 75.5331 73.9339 73.7604 76.8557 69.8982C78.9517 67.1757 79.6504 64.0734 79.3963 60.6544C79.2058 58.6284 79.7139 57.8686 81.5559 56.9189C82.6992 56.2858 83.9696 55.6527 84.9223 54.7663C88.1617 51.7272 88.9239 47.8651 88.3522 43.6231ZM55.5139 44.8894C55.0693 45.7124 53.9895 46.029 53.1638 45.5225C52.3381 45.0793 52.0205 44.003 52.5286 43.1799C52.9732 42.3568 54.053 42.0402 54.8788 42.5467C55.641 42.9899 55.9585 44.0663 55.5139 44.8894ZM61.7386 26.845C62.1832 26.0219 63.263 25.7053 64.0887 26.2118C64.9145 26.655 65.232 27.7314 64.7239 28.5544C64.2793 29.3775 63.1995 29.6941 62.3738 29.1876C61.548 28.7444 61.2305 27.668 61.7386 26.845ZM81.6194 48.8148C79.7774 52.0438 75.7759 53.1834 72.473 51.3473L58.0546 43.2432L56.7843 42.5467L62.6914 32.1L63.39 30.8337L64.6604 31.5302C64.6604 31.5302 73.8068 36.6586 79.0788 39.6343C82.3816 41.4704 83.4614 45.5858 81.6194 48.8148Z" fill="#E24648"/>
<path d="M41.6672 65.9095C36.2047 62.2373 38.9995 56.9189 38.9995 56.9189C40.778 53.8166 44.6525 52.1704 48.273 54.2598L62.8184 62.4272C62.8184 62.4905 63.4535 61.2876 63.4535 61.2876C63.7711 60.6544 64.4698 59.5148 64.4698 59.5148L65.105 58.3751L50.4325 50.1444C48.4 49.0047 45.4147 45.5858 48.0824 40.8373C48.0824 40.8373 52.5286 32.9864 52.7192 32.6065C47.6378 32.2899 40.905 39.0012 42.6199 47.6752C42.747 48.245 42.4294 48.7515 41.9848 49.0047C41.1591 49.3846 40.3968 49.8278 39.6982 50.1444C32.0761 54.1331 31.695 63.1237 36.7129 67.9355C37.7926 68.9485 39.3806 69.8982 39.3806 69.8982L53.926 78.0657L56.2126 74.0136" fill="#E24648"/>
<path d="M62.8819 40.3941L64.7239 37.1651C64.8509 36.9752 65.105 36.8485 65.3591 36.9752L74.315 41.9769L72.0284 45.9657L63.0089 40.9006C62.8184 40.9006 62.7549 40.584 62.8819 40.3941Z" fill="#E24648"/>
<path d="M68.4079 58.5651C66.5659 57.5521 64.2793 58.1852 63.263 60.0213C62.2467 61.8574 62.8819 64.1367 64.7239 65.1497C66.5659 66.1627 68.8525 65.5296 69.8688 63.6935C70.885 61.8574 70.1864 59.5781 68.4079 58.5651ZM68.0268 62.6805C67.5821 63.5036 66.5024 63.8201 65.6766 63.3136C64.8509 62.8704 64.5333 61.7941 65.0415 60.971C65.4861 60.1479 66.5659 59.8314 67.3916 60.3379C68.2173 60.8444 68.5349 61.8574 68.0268 62.6805Z" fill="#E24648"/>
<path d="M59.5155 74.2669C57.6735 73.2538 55.3869 73.887 54.3706 75.7231C53.3543 77.5592 53.9895 79.8385 55.8315 80.8515C57.6735 81.8645 59.9601 81.2314 60.9764 79.3953C61.9927 77.5592 61.3575 75.2799 59.5155 74.2669ZM59.1979 78.3822C58.7533 79.2053 57.6735 79.5219 56.8478 79.0154C56.0221 78.5089 55.7045 77.4959 56.2126 76.6728C56.6572 75.8497 57.737 75.5331 58.5627 76.0396C59.3249 76.5462 59.6425 77.5592 59.1979 78.3822Z" fill="#E24648"/>
<path d="M77.6178 42.2302C75.7758 41.2172 73.4892 41.8503 72.473 43.6864C71.4567 45.5225 72.0919 47.8018 73.9338 48.8148C75.7758 49.8278 78.0625 49.1947 79.0787 47.3586C80.095 45.5225 79.4598 43.2432 77.6178 42.2302ZM77.3003 46.3456C76.8556 47.1686 75.7758 47.4852 74.9501 46.9787C74.1244 46.5355 73.8068 45.4592 74.315 44.6361C74.7596 43.813 75.8394 43.4964 76.6651 44.003C77.4273 44.4462 77.7449 45.5225 77.3003 46.3456Z" fill="#E24648"/>
<path d="M55.8315 40.774C53.9895 39.7609 51.7029 40.3941 50.6866 42.2302C49.6703 44.0663 50.3055 46.3456 52.1475 47.3586C53.9895 48.3716 56.2761 47.7385 57.2924 45.9024C58.3086 44.0663 57.6735 41.787 55.8315 40.774ZM55.5139 44.8894C55.0693 45.7124 53.9895 46.029 53.1638 45.5225C52.338 45.0793 52.0205 44.003 52.5286 43.1799C52.9732 42.3568 54.053 42.0402 54.8787 42.5467C55.6409 42.9899 55.9585 44.0663 55.5139 44.8894Z" fill="#E24648"/>
<path d="M65.0414 24.4391C63.263 23.426 60.9764 24.0592 59.8966 25.832C58.8803 27.668 59.5155 29.9473 61.3575 30.9604C63.1994 31.9734 65.4861 31.3402 66.5023 29.5041C67.5186 27.7314 66.8834 25.4521 65.0414 24.4391ZM64.7239 28.5544C64.2792 29.3775 63.1994 29.6941 62.3737 29.1876C61.548 28.7444 61.2304 27.6681 61.7386 26.845C62.1832 26.0219 63.263 25.7053 64.0887 26.2118C64.8509 26.655 65.1685 27.7314 64.7239 28.5544Z" fill="#E24648"/>
<path d="M46.7486 56.7923C44.7795 55.6527 42.2389 56.3491 41.0955 58.3751C39.9522 60.3379 40.6509 62.8704 42.6835 64.0101C44.6525 65.1497 47.1932 64.4533 48.3365 62.4272C49.4798 60.4645 48.7811 57.932 46.7486 56.7923ZM46.2404 61.2243C45.7958 62.0473 44.716 62.3639 43.8903 61.8574C43.0646 61.3509 42.747 60.3379 43.2551 59.5148C43.6997 58.6917 44.7795 58.3751 45.6053 58.8817C46.431 59.3882 46.6851 60.4012 46.2404 61.2243Z" fill="#E24648"/>
</g>
<defs>
<clipPath id="clip0_111_302">
<rect width="121" height="107" fill="white"/>
</clipPath>
</defs>
</svg>
