<svg width="228" height="45" viewBox="0 0 228 45" fill="none" xmlns="http://www.w3.org/2000/svg">
<g clip-path="url(#clip0_111_249)">
<path d="M-0.124853 39.5531C-0.376184 39.3017 -0.459961 39.0503 -0.459961 38.7151V8.71511C-0.459961 8.37991 -0.376184 8.12852 -0.124853 7.87712C0.0427011 7.62572 0.377809 7.54192 0.712918 7.54192H4.81799C5.48821 7.54192 5.99087 7.79332 6.32598 8.37991L16.0441 24.8883L25.7623 8.37991C26.0974 7.79332 26.6 7.54192 27.2702 7.54192H31.2915C31.6267 7.54192 31.9618 7.62572 32.2131 7.87712C32.4644 8.12852 32.5482 8.37991 32.5482 8.71511V38.7989C32.5482 39.1341 32.4644 39.3855 32.2131 39.6369C31.9618 39.8045 31.7104 39.9721 31.2915 39.9721H26.9351C26.6 39.9721 26.3487 39.8883 26.0974 39.6369C25.846 39.3855 25.7623 39.1341 25.7623 38.8827V18.8548L18.8088 31.0894C18.4737 31.7598 17.8872 32.095 17.1332 32.095H15.0388C14.3686 32.095 13.7821 31.7598 13.3633 31.0894L6.2422 18.8548V38.7151C6.2422 39.0503 6.15843 39.3017 5.9071 39.4693C5.65577 39.7207 5.40443 39.8045 4.98555 39.8045H0.629141C0.37781 39.8883 0.126478 39.7207 -0.124853 39.5531Z" fill="#C55046"/>
<path d="M39.4179 39.5531C39.1666 39.3017 39.0828 39.0503 39.0828 38.7989V8.71511C39.0828 8.37991 39.1666 8.12852 39.4179 7.87712C39.5855 7.62572 39.8368 7.54192 40.2557 7.54192H54.8329C58.7704 7.54192 61.7026 8.29611 63.6295 9.88829C65.5564 11.4805 66.5617 13.6592 66.5617 16.3408C66.5617 17.933 66.1428 19.2738 65.305 20.447C64.4673 21.5363 63.4619 22.3743 62.2891 22.8771C63.7133 23.4637 64.8861 24.3855 65.8915 25.7263C66.8968 27.0671 67.3157 28.5754 67.3157 30.2514C67.3157 33.1006 66.2266 35.447 64.1321 37.2067C62.0377 38.9665 59.0217 39.8045 55.2518 39.8045H40.1719C39.9206 39.8883 39.5855 39.7207 39.4179 39.5531ZM53.9951 20.7821C55.6707 20.7821 57.0111 20.3632 57.9326 19.609C58.8542 18.8548 59.3569 17.8492 59.3569 16.5084C59.3569 15.2514 58.938 14.2458 58.0164 13.4916C57.0949 12.8213 55.7544 12.4023 53.9951 12.4023H46.2039V20.6983H53.9951V20.7821ZM54.4978 34.9442C56.2571 34.9442 57.5975 34.5252 58.6029 33.6034C59.6082 32.7654 60.0271 31.5922 60.0271 30.2514C60.0271 28.9106 59.5244 27.8213 58.5191 26.8995C57.5138 26.0615 56.1733 25.5587 54.4978 25.5587H46.2039V34.8604H54.4978V34.9442Z" fill="#C55046"/>
<path d="M72.9288 39.5531C72.7612 39.3855 72.5936 39.1341 72.5936 38.7989V8.63131C72.5936 8.29611 72.6774 8.04472 72.9288 7.87712C73.0963 7.70952 73.4314 7.54192 73.7665 7.54192H74.6881C75.0232 7.54192 75.3583 7.62572 75.5258 7.79332C75.6934 7.96092 75.8609 8.21231 75.8609 8.54751V22.0391H95.2972V8.63131C95.2972 8.29611 95.381 8.04472 95.6323 7.87712C95.7999 7.70952 96.135 7.54192 96.4701 7.54192H97.3916C97.7268 7.54192 98.0619 7.62572 98.2294 7.79332C98.397 7.96092 98.5645 8.21231 98.5645 8.54751V38.7989C98.5645 39.1341 98.4807 39.3855 98.2294 39.5531C97.9781 39.7207 97.7268 39.8045 97.3916 39.8045H96.4701C96.135 39.8045 95.8837 39.7207 95.6323 39.5531C95.4648 39.3855 95.2972 39.1341 95.2972 38.7989V24.8045H75.8609V38.7989C75.8609 39.1341 75.7772 39.3855 75.5258 39.5531C75.2745 39.7207 75.0232 39.8045 74.6881 39.8045H73.7665C73.4314 39.8883 73.1801 39.7207 72.9288 39.5531Z" fill="black"/>
<path d="M105.099 27.5698C105.099 26.6481 105.015 25.3911 105.015 23.7151C105.015 22.0391 105.015 20.7821 105.099 19.8603C105.267 15.6704 106.44 12.486 108.869 10.3911C111.215 8.2123 114.398 7.12292 118.42 7.12292C122.441 7.12292 125.625 8.2123 127.97 10.3911C130.316 12.5698 131.573 15.7542 131.74 19.8603C131.824 21.7039 131.824 22.9609 131.824 23.7151C131.824 24.4693 131.824 25.7263 131.74 27.5698C131.489 36.0335 127.049 40.3073 118.42 40.3073C109.791 40.3073 105.35 36.0335 105.099 27.5698ZM125.708 35.0279C127.468 33.352 128.473 30.7542 128.641 27.3184C128.724 25.4749 128.724 24.2179 128.724 23.6313C128.724 23.0447 128.724 21.8715 128.641 19.9441C128.473 16.5084 127.551 13.9106 125.708 12.2346C123.865 10.5587 121.519 9.72068 118.503 9.72068C115.488 9.72068 113.142 10.5587 111.299 12.2346C109.456 13.9106 108.534 16.5084 108.366 19.9441C108.366 20.8659 108.283 22.1229 108.283 23.6313C108.283 25.1397 108.283 26.3129 108.366 27.3184C108.534 30.7542 109.456 33.352 111.299 35.0279C113.058 36.7039 115.488 37.5419 118.503 37.5419C121.436 37.5419 123.865 36.7039 125.708 35.0279Z" fill="black"/>
<path d="M141.458 37.1229C139.196 34.9442 138.107 31.7598 138.107 27.4023V8.63131C138.107 8.29611 138.191 8.04472 138.442 7.87712C138.61 7.70952 138.945 7.54192 139.28 7.54192H140.202C140.537 7.54192 140.872 7.62572 141.04 7.79332C141.207 7.96092 141.375 8.21231 141.375 8.54751V27.4023C141.375 30.7542 142.212 33.352 143.972 34.9442C145.647 36.6201 148.077 37.4581 151.26 37.4581C154.36 37.4581 156.79 36.6201 158.465 34.9442C160.141 33.2682 161.062 30.7542 161.062 27.4023V8.63131C161.062 8.29611 161.146 8.04472 161.397 7.87712C161.649 7.70952 161.9 7.62572 162.235 7.62572H163.157C163.492 7.62572 163.743 7.70952 163.994 7.96092C164.162 8.12852 164.33 8.37991 164.33 8.71511V27.4861C164.33 31.9274 163.24 35.1118 160.978 37.2905C158.8 39.3855 155.533 40.4749 151.344 40.4749C146.904 40.3073 143.637 39.2179 141.458 37.1229Z" fill="black"/>
<path d="M175.556 39.1341C173.629 38.3799 172.121 37.2905 171.115 36.0335C170.11 34.7765 169.524 33.4358 169.44 32.0112C169.44 31.7598 169.524 31.5084 169.775 31.3408C169.943 31.1732 170.194 31.0894 170.529 31.0894H171.534C172.121 31.0894 172.54 31.4246 172.623 32.0112C172.875 33.5196 173.796 34.7765 175.388 35.8659C176.98 36.9553 179.326 37.5419 182.342 37.5419C185.525 37.5419 187.955 37.0391 189.463 35.9497C191.054 34.8603 191.808 33.4358 191.808 31.5084C191.808 30.3352 191.39 29.4134 190.636 28.6592C189.882 27.905 188.792 27.2346 187.368 26.6481C185.944 26.0615 183.766 25.3911 180.834 24.4693C178.237 23.7151 176.226 22.9609 174.718 22.2067C173.294 21.4525 172.205 20.5307 171.451 19.4414C170.78 18.352 170.361 17.0112 170.361 15.3352C170.361 13.743 170.864 12.3184 171.786 11.0615C172.707 9.80448 174.048 8.7989 175.807 8.04471C177.566 7.29052 179.661 6.95532 182.09 6.95532C184.604 6.95532 186.698 7.37432 188.457 8.21231C190.217 9.05029 191.557 10.0559 192.479 11.3129C193.4 12.5698 193.903 13.8268 193.903 15.0838C193.903 15.3352 193.819 15.5866 193.652 15.7542C193.484 15.9218 193.233 16.0056 192.898 16.0056H191.892C191.641 16.0056 191.39 15.9218 191.222 15.838C190.971 15.6704 190.887 15.5028 190.803 15.0838C190.636 13.5754 189.714 12.2347 188.122 11.3129C186.53 10.3073 184.52 9.80448 182.09 9.80448C179.493 9.80448 177.483 10.3073 175.891 11.2291C174.383 12.1509 173.629 13.5754 173.629 15.419C173.629 16.5922 173.964 17.5978 174.634 18.4358C175.304 19.19 176.393 19.8603 177.734 20.4469C179.074 21.0335 181.169 21.7039 183.85 22.5419C186.614 23.3799 188.792 24.1341 190.3 24.8883C191.808 25.6425 192.981 26.4805 193.819 27.5698C194.573 28.5754 194.992 30 194.992 31.5922C194.992 34.3576 193.903 36.5363 191.641 38.0447C189.379 39.6369 186.279 40.3911 182.342 40.3911C179.745 40.3073 177.483 39.8883 175.556 39.1341Z" fill="black"/>
<path d="M201.108 39.5531C200.94 39.3855 200.773 39.1341 200.773 38.7989V8.63131C200.773 8.29611 200.856 8.04472 201.108 7.87712C201.275 7.70952 201.61 7.54192 201.945 7.54192H221.549C221.884 7.54192 222.22 7.62572 222.387 7.79332C222.555 7.96092 222.722 8.21231 222.722 8.54751V9.2179C222.722 9.5531 222.638 9.80449 222.387 9.97209C222.136 10.1397 221.884 10.2235 221.549 10.2235H203.956V21.9553H220.46C220.795 21.9553 221.13 22.0391 221.298 22.2067C221.466 22.3743 221.633 22.6257 221.633 22.9609V23.6313C221.633 23.9665 221.549 24.2179 221.298 24.3855C221.047 24.5531 220.795 24.6369 220.46 24.6369H203.956V36.8715H221.968C222.303 36.8715 222.638 36.9553 222.806 37.1229C222.974 37.2905 223.141 37.5419 223.141 37.8771V38.5475C223.141 38.8827 223.057 39.1341 222.806 39.3017C222.555 39.4693 222.303 39.5531 221.968 39.5531H201.862C201.527 39.8883 201.275 39.7207 201.108 39.5531Z" fill="black"/>
</g>
<defs>
<clipPath id="clip0_111_249">
<rect width="228" height="45" fill="white"/>
</clipPath>
</defs>
</svg>
