<svg width="24" height="24" viewBox="0 0 24 24" fill="none" xmlns="http://www.w3.org/2000/svg">
<g clip-path="url(#clip0_111_275)">
<path d="M23.1286 1.15362L18.2536 0.0286166C17.7239 -0.0932583 17.1802 0.183304 16.9646 0.680179L14.7146 5.93017C14.5177 6.38955 14.6489 6.92861 15.038 7.24267L17.8786 9.56767C16.1911 13.163 13.2427 16.1536 9.57236 17.8739L7.24736 15.0333C6.92861 14.6442 6.39424 14.513 5.93486 14.7099L0.684863 16.9599C0.183301 17.1802 -0.0932618 17.7239 0.0286132 18.2536L1.15361 23.1286C1.2708 23.6348 1.7208 24.0005 2.25049 24.0005C14.2552 24.0005 24.0005 14.2739 24.0005 2.25049C24.0005 1.72549 23.6396 1.2708 23.1286 1.15362Z" fill="#E24648"/>
</g>
<defs>
<clipPath id="clip0_111_275">
<rect width="24" height="24" fill="white"/>
</clipPath>
</defs>
</svg>
