<svg width="25" height="23" viewBox="0 0 25 23" fill="none" xmlns="http://www.w3.org/2000/svg">
<path d="M0.377587 10.565C2.93515 9.01958 5.79009 7.72978 8.4576 6.43338C13.0468 4.30999 17.6542 2.22338 22.3081 0.280785C23.2135 -0.0502153 24.8405 -0.373915 25 1.09808C24.9127 3.18168 24.5533 5.25309 24.3068 7.32448C23.6812 11.8797 22.9581 16.4193 22.253 20.9595C22.0101 22.4718 20.283 23.2547 19.178 22.2869C16.5223 20.3191 13.8462 18.3705 11.2245 16.3571C10.3657 15.3998 11.162 14.0251 11.9291 13.3415C14.1163 10.9769 16.436 8.96789 18.509 6.48108C19.0681 4.99978 17.416 6.24818 16.871 6.63068C13.8766 8.89429 10.9555 11.2961 7.79843 13.2855C6.18581 14.2593 4.30628 13.4271 2.69439 12.8837C1.24913 12.2273 -0.868713 11.566 0.377441 10.5651L0.377587 10.565Z" fill="white"/>
</svg>
